<mxfile host="app.diagrams.net" modified="2022-02-02T21:25:31.972Z" agent="5.0 (X11; Linux x86_64) AppleWebKit/537.36 (KHTML, like Gecko) Chrome/97.0.4692.99 Safari/537.36" etag="4yDh8aOOV9D47D_IKgVG" version="16.5.2" type="github">
  <diagram name="Page-1" id="efa7a0a1-bf9b-a30e-e6df-94a7791c09e9">
    <mxGraphModel dx="4094" dy="2302" grid="0" gridSize="10" guides="1" tooltips="1" connect="1" arrows="1" fold="1" page="1" pageScale="1" pageWidth="826" pageHeight="1169" background="none" math="0" shadow="0">
      <root>
        <mxCell id="0" />
        <mxCell id="1" parent="0" />
        <mxCell id="ai49O4Mp9xUd7SfKjjoI-121" value="Chef" style="swimlane;fontStyle=1;align=center;verticalAlign=top;childLayout=stackLayout;horizontal=1;startSize=43;horizontalStack=0;resizeParent=1;resizeParentMax=0;resizeLast=0;collapsible=1;marginBottom=0;fontSize=28;" parent="1" vertex="1">
          <mxGeometry x="-176" y="64" width="435" height="124" as="geometry" />
        </mxCell>
        <mxCell id="ai49O4Mp9xUd7SfKjjoI-124" value="updateMenu(newMenu)" style="text;strokeColor=none;fillColor=none;align=left;verticalAlign=top;spacingLeft=4;spacingRight=4;overflow=hidden;rotatable=0;points=[[0,0.5],[1,0.5]];portConstraint=eastwest;fontSize=28;" parent="ai49O4Mp9xUd7SfKjjoI-121" vertex="1">
          <mxGeometry y="43" width="435" height="81" as="geometry" />
        </mxCell>
        <mxCell id="kFv9sooGO09x-evt4qj2-46" style="edgeStyle=orthogonalEdgeStyle;rounded=0;orthogonalLoop=1;jettySize=auto;html=1;fontSize=28;endArrow=none;endFill=0;" edge="1" parent="1" source="ai49O4Mp9xUd7SfKjjoI-125" target="ai49O4Mp9xUd7SfKjjoI-135">
          <mxGeometry relative="1" as="geometry">
            <mxPoint x="411" y="-295" as="targetPoint" />
            <Array as="points">
              <mxPoint x="411" y="-118" />
            </Array>
          </mxGeometry>
        </mxCell>
        <mxCell id="kFv9sooGO09x-evt4qj2-49" style="edgeStyle=orthogonalEdgeStyle;rounded=0;orthogonalLoop=1;jettySize=auto;html=1;fontSize=28;endArrow=none;endFill=0;" edge="1" parent="1" source="ai49O4Mp9xUd7SfKjjoI-125" target="ai49O4Mp9xUd7SfKjjoI-143">
          <mxGeometry relative="1" as="geometry">
            <Array as="points">
              <mxPoint x="638" y="-34" />
            </Array>
          </mxGeometry>
        </mxCell>
        <mxCell id="ai49O4Mp9xUd7SfKjjoI-125" value="Guest&#xa;" style="swimlane;fontStyle=1;align=center;verticalAlign=top;childLayout=stackLayout;horizontal=1;startSize=42;horizontalStack=0;resizeParent=1;resizeParentMax=0;resizeLast=0;collapsible=1;marginBottom=0;fontSize=28;" parent="1" vertex="1">
          <mxGeometry x="-303" y="-523" width="575" height="522" as="geometry" />
        </mxCell>
        <mxCell id="ai49O4Mp9xUd7SfKjjoI-126" value="GuestID&#xa;Booking List&#xa;String VehicleRegistrationNumber&#xa;" style="text;strokeColor=none;fillColor=none;align=left;verticalAlign=top;spacingLeft=4;spacingRight=4;overflow=hidden;rotatable=0;points=[[0,0.5],[1,0.5]];portConstraint=eastwest;fontSize=28;" parent="ai49O4Mp9xUd7SfKjjoI-125" vertex="1">
          <mxGeometry y="42" width="575" height="116" as="geometry" />
        </mxCell>
        <mxCell id="ai49O4Mp9xUd7SfKjjoI-127" value="" style="line;strokeWidth=1;fillColor=none;align=left;verticalAlign=middle;spacingTop=-1;spacingLeft=3;spacingRight=3;rotatable=0;labelPosition=right;points=[];portConstraint=eastwest;fontSize=28;" parent="ai49O4Mp9xUd7SfKjjoI-125" vertex="1">
          <mxGeometry y="158" width="575" height="8" as="geometry" />
        </mxCell>
        <mxCell id="ai49O4Mp9xUd7SfKjjoI-128" value="order service()&#xa;book(rooms, date from, date to)&#xa;show available services()&#xa;show available rooms()&#xa;show service description(service)&#xa;show availability of particular room()&#xa;pay()&#xa;&#xa;&#xa;&#xa;&#xa;" style="text;strokeColor=none;fillColor=none;align=left;verticalAlign=top;spacingLeft=4;spacingRight=4;overflow=hidden;rotatable=0;points=[[0,0.5],[1,0.5]];portConstraint=eastwest;fontSize=28;" parent="ai49O4Mp9xUd7SfKjjoI-125" vertex="1">
          <mxGeometry y="166" width="575" height="356" as="geometry" />
        </mxCell>
        <mxCell id="fnJD8WSs7R0ynfYZ3BSN-35" style="edgeStyle=orthogonalEdgeStyle;rounded=0;orthogonalLoop=1;jettySize=auto;html=1;endArrow=none;endFill=0;fontSize=28;" parent="1" source="ai49O4Mp9xUd7SfKjjoI-130" target="ai49O4Mp9xUd7SfKjjoI-135" edge="1">
          <mxGeometry relative="1" as="geometry">
            <Array as="points">
              <mxPoint x="657" y="-830" />
              <mxPoint x="657" y="-830" />
            </Array>
            <mxPoint x="792" y="-875" as="targetPoint" />
          </mxGeometry>
        </mxCell>
        <mxCell id="ai49O4Mp9xUd7SfKjjoI-130" value="Room&#xa;" style="swimlane;fontStyle=1;align=center;verticalAlign=top;childLayout=stackLayout;horizontal=1;startSize=42;horizontalStack=0;resizeParent=1;resizeParentMax=0;resizeLast=0;collapsible=1;marginBottom=0;fontSize=28;" parent="1" vertex="1">
          <mxGeometry x="1019.5" y="-1001" width="368" height="341" as="geometry" />
        </mxCell>
        <mxCell id="ai49O4Mp9xUd7SfKjjoI-131" value="RoomID&#xa;Room Number&#xa;IsToClean&#xa;Maximum Occupancy&#xa;Area&#xa;IsBalcony&#xa;IsAvailable" style="text;strokeColor=none;fillColor=none;align=left;verticalAlign=top;spacingLeft=4;spacingRight=4;overflow=hidden;rotatable=0;points=[[0,0.5],[1,0.5]];portConstraint=eastwest;fontSize=28;" parent="ai49O4Mp9xUd7SfKjjoI-130" vertex="1">
          <mxGeometry y="42" width="368" height="241" as="geometry" />
        </mxCell>
        <mxCell id="ai49O4Mp9xUd7SfKjjoI-132" value="" style="line;strokeWidth=1;fillColor=none;align=left;verticalAlign=middle;spacingTop=-1;spacingLeft=3;spacingRight=3;rotatable=0;labelPosition=right;points=[];portConstraint=eastwest;fontSize=28;" parent="ai49O4Mp9xUd7SfKjjoI-130" vertex="1">
          <mxGeometry y="283" width="368" height="8" as="geometry" />
        </mxCell>
        <mxCell id="ai49O4Mp9xUd7SfKjjoI-133" value="show rooms to clean()" style="text;strokeColor=none;fillColor=none;align=left;verticalAlign=top;spacingLeft=4;spacingRight=4;overflow=hidden;rotatable=0;points=[[0,0.5],[1,0.5]];portConstraint=eastwest;fontSize=28;" parent="ai49O4Mp9xUd7SfKjjoI-130" vertex="1">
          <mxGeometry y="291" width="368" height="50" as="geometry" />
        </mxCell>
        <mxCell id="kFv9sooGO09x-evt4qj2-64" style="edgeStyle=orthogonalEdgeStyle;rounded=0;orthogonalLoop=1;jettySize=auto;html=1;fontSize=28;endArrow=none;endFill=0;" edge="1" parent="1" source="ai49O4Mp9xUd7SfKjjoI-135" target="ai49O4Mp9xUd7SfKjjoI-143">
          <mxGeometry relative="1" as="geometry">
            <Array as="points">
              <mxPoint x="554" y="-737" />
              <mxPoint x="554" y="-590" />
            </Array>
          </mxGeometry>
        </mxCell>
        <mxCell id="ai49O4Mp9xUd7SfKjjoI-135" value="Booking&#xa;" style="swimlane;fontStyle=1;align=center;verticalAlign=top;childLayout=stackLayout;horizontal=1;startSize=44;horizontalStack=0;resizeParent=1;resizeParentMax=0;resizeLast=0;collapsible=1;marginBottom=0;fontSize=28;" parent="1" vertex="1">
          <mxGeometry x="21" y="-1016" width="496" height="448" as="geometry" />
        </mxCell>
        <mxCell id="ai49O4Mp9xUd7SfKjjoI-136" value="BookingID&#xa;From&#xa;To&#xa;Guest List&#xa;Room number&#xa;Room Count&#xa;Amount to pay&#xa;Reservation status&#xa;Payment status" style="text;strokeColor=none;fillColor=none;align=left;verticalAlign=top;spacingLeft=4;spacingRight=4;overflow=hidden;rotatable=0;points=[[0,0.5],[1,0.5]];portConstraint=eastwest;fontSize=28;" parent="ai49O4Mp9xUd7SfKjjoI-135" vertex="1">
          <mxGeometry y="44" width="496" height="315" as="geometry" />
        </mxCell>
        <mxCell id="ai49O4Mp9xUd7SfKjjoI-137" value="" style="line;strokeWidth=1;fillColor=none;align=left;verticalAlign=middle;spacingTop=-1;spacingLeft=3;spacingRight=3;rotatable=0;labelPosition=right;points=[];portConstraint=eastwest;fontSize=28;" parent="ai49O4Mp9xUd7SfKjjoI-135" vertex="1">
          <mxGeometry y="359" width="496" height="8" as="geometry" />
        </mxCell>
        <mxCell id="ai49O4Mp9xUd7SfKjjoI-138" value="change reservation status()&#xa;change payment status()&#xa;&#xa;" style="text;strokeColor=none;fillColor=none;align=left;verticalAlign=top;spacingLeft=4;spacingRight=4;overflow=hidden;rotatable=0;points=[[0,0.5],[1,0.5]];portConstraint=eastwest;fontSize=28;" parent="ai49O4Mp9xUd7SfKjjoI-135" vertex="1">
          <mxGeometry y="367" width="496" height="81" as="geometry" />
        </mxCell>
        <mxCell id="ai49O4Mp9xUd7SfKjjoI-139" value="Service&#xa;" style="swimlane;fontStyle=1;align=center;verticalAlign=top;childLayout=stackLayout;horizontal=1;startSize=47;horizontalStack=0;resizeParent=1;resizeParentMax=0;resizeLast=0;collapsible=1;marginBottom=0;fontSize=28;" parent="1" vertex="1">
          <mxGeometry x="1064" y="-650" width="285" height="287" as="geometry" />
        </mxCell>
        <mxCell id="ai49O4Mp9xUd7SfKjjoI-140" value="ServiceID&#xa;Price&#xa;Name&#xa;Description&#xa;&#xa;&#xa;&#xa;" style="text;strokeColor=none;fillColor=none;align=left;verticalAlign=top;spacingLeft=4;spacingRight=4;overflow=hidden;rotatable=0;points=[[0,0.5],[1,0.5]];portConstraint=eastwest;fontSize=28;" parent="ai49O4Mp9xUd7SfKjjoI-139" vertex="1">
          <mxGeometry y="47" width="285" height="150" as="geometry" />
        </mxCell>
        <mxCell id="ai49O4Mp9xUd7SfKjjoI-141" value="" style="line;strokeWidth=1;fillColor=none;align=left;verticalAlign=middle;spacingTop=-1;spacingLeft=3;spacingRight=3;rotatable=0;labelPosition=right;points=[];portConstraint=eastwest;fontSize=28;" parent="ai49O4Mp9xUd7SfKjjoI-139" vertex="1">
          <mxGeometry y="197" width="285" height="8" as="geometry" />
        </mxCell>
        <mxCell id="ai49O4Mp9xUd7SfKjjoI-142" value="show services()&#xa;show description()&#xa;" style="text;strokeColor=none;fillColor=none;align=left;verticalAlign=top;spacingLeft=4;spacingRight=4;overflow=hidden;rotatable=0;points=[[0,0.5],[1,0.5]];portConstraint=eastwest;fontStyle=0;fontSize=28;" parent="ai49O4Mp9xUd7SfKjjoI-139" vertex="1">
          <mxGeometry y="205" width="285" height="82" as="geometry" />
        </mxCell>
        <mxCell id="kFv9sooGO09x-evt4qj2-54" style="edgeStyle=orthogonalEdgeStyle;rounded=0;orthogonalLoop=1;jettySize=auto;html=1;fontSize=28;endArrow=none;endFill=0;" edge="1" parent="1" source="ai49O4Mp9xUd7SfKjjoI-143" target="ai49O4Mp9xUd7SfKjjoI-139">
          <mxGeometry relative="1" as="geometry">
            <mxPoint x="1093" y="-172" as="targetPoint" />
            <Array as="points">
              <mxPoint x="940" y="-172" />
              <mxPoint x="1207" y="-172" />
            </Array>
          </mxGeometry>
        </mxCell>
        <mxCell id="ai49O4Mp9xUd7SfKjjoI-143" value="Order" style="swimlane;fontStyle=1;align=center;verticalAlign=top;childLayout=stackLayout;horizontal=1;startSize=42;horizontalStack=0;resizeParent=1;resizeParentMax=0;resizeLast=0;collapsible=1;marginBottom=0;fontSize=28;" parent="1" vertex="1">
          <mxGeometry x="591" y="-727" width="399" height="273" as="geometry" />
        </mxCell>
        <mxCell id="ai49O4Mp9xUd7SfKjjoI-144" value="OrderID&#xa;List of ordered services&#xa;Status&#xa;BookingID&#xa;Price&#xa;&#xa;&#xa;" style="text;strokeColor=none;fillColor=none;align=left;verticalAlign=top;spacingLeft=4;spacingRight=4;overflow=hidden;rotatable=0;points=[[0,0.5],[1,0.5]];portConstraint=eastwest;fontSize=28;" parent="ai49O4Mp9xUd7SfKjjoI-143" vertex="1">
          <mxGeometry y="42" width="399" height="176" as="geometry" />
        </mxCell>
        <mxCell id="ai49O4Mp9xUd7SfKjjoI-145" value="" style="line;strokeWidth=1;fillColor=none;align=left;verticalAlign=middle;spacingTop=-1;spacingLeft=3;spacingRight=3;rotatable=0;labelPosition=right;points=[];portConstraint=eastwest;fontSize=28;" parent="ai49O4Mp9xUd7SfKjjoI-143" vertex="1">
          <mxGeometry y="218" width="399" height="8" as="geometry" />
        </mxCell>
        <mxCell id="ai49O4Mp9xUd7SfKjjoI-146" value="show active orders()" style="text;strokeColor=none;fillColor=none;align=left;verticalAlign=top;spacingLeft=4;spacingRight=4;overflow=hidden;rotatable=0;points=[[0,0.5],[1,0.5]];portConstraint=eastwest;fontSize=28;" parent="ai49O4Mp9xUd7SfKjjoI-143" vertex="1">
          <mxGeometry y="226" width="399" height="47" as="geometry" />
        </mxCell>
        <mxCell id="ai49O4Mp9xUd7SfKjjoI-163" value="Employee {abstract}" style="swimlane;fontStyle=1;align=center;verticalAlign=top;childLayout=stackLayout;horizontal=1;startSize=43;horizontalStack=0;resizeParent=1;resizeParentMax=0;resizeLast=0;collapsible=1;marginBottom=0;fontSize=28;" parent="1" vertex="1">
          <mxGeometry x="-616" y="-511" width="291" height="178" as="geometry" />
        </mxCell>
        <mxCell id="ai49O4Mp9xUd7SfKjjoI-164" value="EmployeeID&#xa;TasksList&#xa;" style="text;strokeColor=none;fillColor=none;align=left;verticalAlign=top;spacingLeft=4;spacingRight=4;overflow=hidden;rotatable=0;points=[[0,0.5],[1,0.5]];portConstraint=eastwest;fontSize=28;" parent="ai49O4Mp9xUd7SfKjjoI-163" vertex="1">
          <mxGeometry y="43" width="291" height="77" as="geometry" />
        </mxCell>
        <mxCell id="ai49O4Mp9xUd7SfKjjoI-165" value="" style="line;strokeWidth=1;fillColor=none;align=left;verticalAlign=middle;spacingTop=-1;spacingLeft=3;spacingRight=3;rotatable=0;labelPosition=right;points=[];portConstraint=eastwest;fontSize=28;" parent="ai49O4Mp9xUd7SfKjjoI-163" vertex="1">
          <mxGeometry y="120" width="291" height="8" as="geometry" />
        </mxCell>
        <mxCell id="ai49O4Mp9xUd7SfKjjoI-166" value="done(task)" style="text;strokeColor=none;fillColor=none;align=left;verticalAlign=top;spacingLeft=4;spacingRight=4;overflow=hidden;rotatable=0;points=[[0,0.5],[1,0.5]];portConstraint=eastwest;fontSize=28;" parent="ai49O4Mp9xUd7SfKjjoI-163" vertex="1">
          <mxGeometry y="128" width="291" height="50" as="geometry" />
        </mxCell>
        <mxCell id="ai49O4Mp9xUd7SfKjjoI-167" value="Porter&#xa;" style="swimlane;fontStyle=1;align=center;verticalAlign=top;childLayout=stackLayout;horizontal=1;startSize=40;horizontalStack=0;resizeParent=1;resizeParentMax=0;resizeLast=0;collapsible=1;marginBottom=0;fontSize=28;" parent="1" vertex="1">
          <mxGeometry x="748" y="-50" width="662" height="388" as="geometry" />
        </mxCell>
        <mxCell id="ai49O4Mp9xUd7SfKjjoI-170" value="check out(booking id)&#xa;check in(booking id)&#xa;order service(booking id, list of services)&#xa;book(rooms, date from, date to)&#xa;show available services()&#xa;show available rooms(date from, date to, &#xa;number of guests)&#xa;show service description(service)&#xa;show availability of particular room(date from,&#xa;                             date to, room number)&#xa;&#xa;" style="text;strokeColor=none;fillColor=none;align=left;verticalAlign=top;spacingLeft=4;spacingRight=4;overflow=hidden;rotatable=0;points=[[0,0.5],[1,0.5]];portConstraint=eastwest;fontSize=28;" parent="ai49O4Mp9xUd7SfKjjoI-167" vertex="1">
          <mxGeometry y="40" width="662" height="348" as="geometry" />
        </mxCell>
        <mxCell id="kFv9sooGO09x-evt4qj2-14" style="edgeStyle=orthogonalEdgeStyle;rounded=0;orthogonalLoop=1;jettySize=auto;html=1;fontSize=28;endArrow=none;endFill=0;" edge="1" parent="1" source="ai49O4Mp9xUd7SfKjjoI-171" target="ai49O4Mp9xUd7SfKjjoI-183">
          <mxGeometry relative="1" as="geometry">
            <Array as="points">
              <mxPoint x="-986" y="-61" />
              <mxPoint x="-986" y="-61" />
            </Array>
          </mxGeometry>
        </mxCell>
        <mxCell id="ai49O4Mp9xUd7SfKjjoI-171" value="Manager" style="swimlane;fontStyle=1;align=center;verticalAlign=top;childLayout=stackLayout;horizontal=1;startSize=44;horizontalStack=0;resizeParent=1;resizeParentMax=0;resizeLast=0;collapsible=1;marginBottom=0;fontSize=28;" parent="1" vertex="1">
          <mxGeometry x="-1066.5" y="30" width="610" height="156" as="geometry" />
        </mxCell>
        <mxCell id="ai49O4Mp9xUd7SfKjjoI-174" value="show daily booking report(date)&#xa;show daily income report(date)&#xa;add new task()&#xa;" style="text;strokeColor=none;fillColor=none;align=left;verticalAlign=top;spacingLeft=4;spacingRight=4;overflow=hidden;rotatable=0;points=[[0,0.5],[1,0.5]];portConstraint=eastwest;fontSize=28;" parent="ai49O4Mp9xUd7SfKjjoI-171" vertex="1">
          <mxGeometry y="44" width="610" height="112" as="geometry" />
        </mxCell>
        <mxCell id="ai49O4Mp9xUd7SfKjjoI-175" value="Waiter" style="swimlane;fontStyle=1;align=center;verticalAlign=top;childLayout=stackLayout;horizontal=1;startSize=42;horizontalStack=0;resizeParent=1;resizeParentMax=0;resizeLast=0;collapsible=1;marginBottom=0;fontSize=28;" parent="1" vertex="1">
          <mxGeometry x="-443" y="103" width="249" height="83" as="geometry" />
        </mxCell>
        <mxCell id="ai49O4Mp9xUd7SfKjjoI-178" value="order(food)" style="text;strokeColor=none;fillColor=none;align=left;verticalAlign=top;spacingLeft=4;spacingRight=4;overflow=hidden;rotatable=0;points=[[0,0.5],[1,0.5]];portConstraint=eastwest;fontSize=28;" parent="ai49O4Mp9xUd7SfKjjoI-175" vertex="1">
          <mxGeometry y="42" width="249" height="41" as="geometry" />
        </mxCell>
        <mxCell id="ai49O4Mp9xUd7SfKjjoI-179" value="Maid&#xa;" style="swimlane;fontStyle=1;align=center;verticalAlign=top;childLayout=stackLayout;horizontal=1;startSize=40;horizontalStack=0;resizeParent=1;resizeParentMax=0;resizeLast=0;collapsible=1;marginBottom=0;fontSize=28;" parent="1" vertex="1">
          <mxGeometry x="281" y="100" width="455" height="88" as="geometry" />
        </mxCell>
        <mxCell id="ai49O4Mp9xUd7SfKjjoI-182" value="room to clean(room number)" style="text;strokeColor=none;fillColor=none;align=left;verticalAlign=top;spacingLeft=4;spacingRight=4;overflow=hidden;rotatable=0;points=[[0,0.5],[1,0.5]];portConstraint=eastwest;fontSize=28;" parent="ai49O4Mp9xUd7SfKjjoI-179" vertex="1">
          <mxGeometry y="40" width="455" height="48" as="geometry" />
        </mxCell>
        <mxCell id="kFv9sooGO09x-evt4qj2-10" style="edgeStyle=orthogonalEdgeStyle;rounded=0;orthogonalLoop=1;jettySize=auto;html=1;fontSize=28;endArrow=none;endFill=0;" edge="1" parent="1" source="ai49O4Mp9xUd7SfKjjoI-183" target="ai49O4Mp9xUd7SfKjjoI-143">
          <mxGeometry relative="1" as="geometry">
            <Array as="points">
              <mxPoint x="-1095" y="-449" />
              <mxPoint x="-1095" y="354" />
              <mxPoint x="1430" y="354" />
              <mxPoint x="1430" y="-85" />
              <mxPoint x="764" y="-85" />
            </Array>
          </mxGeometry>
        </mxCell>
        <mxCell id="ai49O4Mp9xUd7SfKjjoI-183" value="Task" style="swimlane;fontStyle=1;align=center;verticalAlign=top;childLayout=stackLayout;horizontal=1;startSize=42;horizontalStack=0;resizeParent=1;resizeParentMax=0;resizeLast=0;collapsible=1;marginBottom=0;fontSize=28;" parent="1" vertex="1">
          <mxGeometry x="-1054" y="-620" width="386" height="341" as="geometry" />
        </mxCell>
        <mxCell id="ai49O4Mp9xUd7SfKjjoI-184" value="EmployeeID&#xa;Name&#xa;Description&#xa;Status&#xa;" style="text;strokeColor=none;fillColor=none;align=left;verticalAlign=top;spacingLeft=4;spacingRight=4;overflow=hidden;rotatable=0;points=[[0,0.5],[1,0.5]];portConstraint=eastwest;fontSize=28;" parent="ai49O4Mp9xUd7SfKjjoI-183" vertex="1">
          <mxGeometry y="42" width="386" height="146" as="geometry" />
        </mxCell>
        <mxCell id="ai49O4Mp9xUd7SfKjjoI-185" value="" style="line;strokeWidth=1;fillColor=none;align=left;verticalAlign=middle;spacingTop=-1;spacingLeft=3;spacingRight=3;rotatable=0;labelPosition=right;points=[];portConstraint=eastwest;fontSize=28;" parent="ai49O4Mp9xUd7SfKjjoI-183" vertex="1">
          <mxGeometry y="188" width="386" height="8" as="geometry" />
        </mxCell>
        <mxCell id="ai49O4Mp9xUd7SfKjjoI-186" value="show all undone tasks()&#xa;show status()&#xa;show description()&#xa;show employees()&#xa;" style="text;strokeColor=none;fillColor=none;align=left;verticalAlign=top;spacingLeft=4;spacingRight=4;overflow=hidden;rotatable=0;points=[[0,0.5],[1,0.5]];portConstraint=eastwest;fontStyle=0;fontSize=28;" parent="ai49O4Mp9xUd7SfKjjoI-183" vertex="1">
          <mxGeometry y="196" width="386" height="145" as="geometry" />
        </mxCell>
        <mxCell id="ai49O4Mp9xUd7SfKjjoI-213" style="edgeStyle=none;rounded=0;orthogonalLoop=1;jettySize=auto;html=1;exitX=0.75;exitY=0;exitDx=0;exitDy=0;endArrow=halfCircle;endFill=0;strokeColor=default;strokeWidth=1;elbow=vertical;fontSize=28;" parent="1" source="ai49O4Mp9xUd7SfKjjoI-135" target="ai49O4Mp9xUd7SfKjjoI-135" edge="1">
          <mxGeometry relative="1" as="geometry" />
        </mxCell>
        <mxCell id="3MSLv7ASAuEQ_JDPr6m0-1" value="Hotel" style="swimlane;fontStyle=1;align=center;verticalAlign=top;childLayout=stackLayout;horizontal=1;startSize=41;horizontalStack=0;resizeParent=1;resizeParentMax=0;resizeLast=0;collapsible=1;marginBottom=0;fontSize=28;" parent="1" vertex="1">
          <mxGeometry x="-1067" y="-1008" width="439" height="243" as="geometry" />
        </mxCell>
        <mxCell id="3MSLv7ASAuEQ_JDPr6m0-2" value="Name&#xa;Creation Date&#xa;" style="text;strokeColor=none;fillColor=none;align=left;verticalAlign=top;spacingLeft=4;spacingRight=4;overflow=hidden;rotatable=0;points=[[0,0.5],[1,0.5]];portConstraint=eastwest;fontSize=28;" parent="3MSLv7ASAuEQ_JDPr6m0-1" vertex="1">
          <mxGeometry y="41" width="439" height="74" as="geometry" />
        </mxCell>
        <mxCell id="3MSLv7ASAuEQ_JDPr6m0-3" value="" style="line;strokeWidth=1;fillColor=none;align=left;verticalAlign=middle;spacingTop=-1;spacingLeft=3;spacingRight=3;rotatable=0;labelPosition=right;points=[];portConstraint=eastwest;fontSize=28;" parent="3MSLv7ASAuEQ_JDPr6m0-1" vertex="1">
          <mxGeometry y="115" width="439" height="8" as="geometry" />
        </mxCell>
        <mxCell id="3MSLv7ASAuEQ_JDPr6m0-4" value="create daily booking report()&#xa;create new daily tasks()&#xa;create daily income report()&#xa;" style="text;strokeColor=none;fillColor=none;align=left;verticalAlign=top;spacingLeft=4;spacingRight=4;overflow=hidden;rotatable=0;points=[[0,0.5],[1,0.5]];portConstraint=eastwest;fontSize=28;" parent="3MSLv7ASAuEQ_JDPr6m0-1" vertex="1">
          <mxGeometry y="123" width="439" height="120" as="geometry" />
        </mxCell>
        <mxCell id="kFv9sooGO09x-evt4qj2-17" style="edgeStyle=orthogonalEdgeStyle;rounded=0;orthogonalLoop=1;jettySize=auto;html=1;fontSize=28;endArrow=none;endFill=0;" edge="1" parent="1" source="ai49O4Mp9xUd7SfKjjoI-183" target="ai49O4Mp9xUd7SfKjjoI-163">
          <mxGeometry relative="1" as="geometry">
            <mxPoint x="-596" y="-74" as="sourcePoint" />
            <Array as="points">
              <mxPoint x="-773" y="-74" />
              <mxPoint x="-540" y="-74" />
            </Array>
          </mxGeometry>
        </mxCell>
        <mxCell id="ai49O4Mp9xUd7SfKjjoI-117" value="Person {abstract}" style="swimlane;fontStyle=1;align=center;verticalAlign=top;childLayout=stackLayout;horizontal=1;startSize=43;horizontalStack=0;resizeParent=1;resizeParentMax=0;resizeLast=0;collapsible=1;marginBottom=0;fontSize=28;" parent="1" vertex="1">
          <mxGeometry x="-480" y="-1011" width="476" height="309" as="geometry" />
        </mxCell>
        <mxCell id="ai49O4Mp9xUd7SfKjjoI-118" value="Name&#xa;Surname&#xa;Phone Number&#xa;Email&#xa;Identification Number&#xa;" style="text;strokeColor=none;fillColor=none;align=left;verticalAlign=top;spacingLeft=4;spacingRight=4;overflow=hidden;rotatable=0;points=[[0,0.5],[1,0.5]];portConstraint=eastwest;fontSize=28;" parent="ai49O4Mp9xUd7SfKjjoI-117" vertex="1">
          <mxGeometry y="43" width="476" height="182" as="geometry" />
        </mxCell>
        <mxCell id="ai49O4Mp9xUd7SfKjjoI-119" value="" style="line;strokeWidth=1;fillColor=none;align=left;verticalAlign=middle;spacingTop=-1;spacingLeft=3;spacingRight=3;rotatable=0;labelPosition=right;points=[];portConstraint=eastwest;fontSize=28;" parent="ai49O4Mp9xUd7SfKjjoI-117" vertex="1">
          <mxGeometry y="225" width="476" height="8" as="geometry" />
        </mxCell>
        <mxCell id="ai49O4Mp9xUd7SfKjjoI-120" value="show all people()&#xa;show information about(person)&#xa;" style="text;strokeColor=none;fillColor=none;align=left;verticalAlign=top;spacingLeft=4;spacingRight=4;overflow=hidden;rotatable=0;points=[[0,0.5],[1,0.5]];portConstraint=eastwest;fontSize=28;" parent="ai49O4Mp9xUd7SfKjjoI-117" vertex="1">
          <mxGeometry y="233" width="476" height="76" as="geometry" />
        </mxCell>
        <mxCell id="kFv9sooGO09x-evt4qj2-4" style="edgeStyle=orthogonalEdgeStyle;rounded=0;orthogonalLoop=1;jettySize=auto;html=1;entryX=0.25;entryY=0;entryDx=0;entryDy=0;fontSize=28;endArrow=none;endFill=0;" edge="1" parent="1" source="3MSLv7ASAuEQ_JDPr6m0-4" target="ai49O4Mp9xUd7SfKjjoI-163">
          <mxGeometry relative="1" as="geometry" />
        </mxCell>
        <mxCell id="kFv9sooGO09x-evt4qj2-7" value="*" style="text;html=1;align=center;verticalAlign=middle;resizable=0;points=[];autosize=1;strokeColor=none;fillColor=none;fontSize=28;" vertex="1" parent="1">
          <mxGeometry x="-537" y="-546" width="21" height="38" as="geometry" />
        </mxCell>
        <mxCell id="kFv9sooGO09x-evt4qj2-9" value="1" style="text;html=1;align=center;verticalAlign=middle;resizable=0;points=[];autosize=1;strokeColor=none;fillColor=none;fontSize=28;" vertex="1" parent="1">
          <mxGeometry x="-628" y="-860" width="26" height="38" as="geometry" />
        </mxCell>
        <mxCell id="kFv9sooGO09x-evt4qj2-11" value="1...*" style="text;html=1;align=center;verticalAlign=middle;resizable=0;points=[];autosize=1;strokeColor=none;fillColor=none;fontSize=28;" vertex="1" parent="1">
          <mxGeometry x="-1119" y="-490" width="60" height="38" as="geometry" />
        </mxCell>
        <mxCell id="kFv9sooGO09x-evt4qj2-12" value="0...1" style="text;html=1;align=center;verticalAlign=middle;resizable=0;points=[];autosize=1;strokeColor=none;fillColor=none;fontSize=28;" vertex="1" parent="1">
          <mxGeometry x="773" y="-452" width="64" height="38" as="geometry" />
        </mxCell>
        <mxCell id="kFv9sooGO09x-evt4qj2-13" value="refers to" style="text;html=1;align=center;verticalAlign=middle;resizable=0;points=[];autosize=1;strokeColor=none;fillColor=none;fontSize=28;" vertex="1" parent="1">
          <mxGeometry x="766" y="-414" width="113" height="38" as="geometry" />
        </mxCell>
        <mxCell id="kFv9sooGO09x-evt4qj2-15" value="*" style="text;html=1;align=center;verticalAlign=middle;resizable=0;points=[];autosize=1;strokeColor=none;fillColor=none;fontSize=28;" vertex="1" parent="1">
          <mxGeometry x="-984" y="-279" width="21" height="38" as="geometry" />
        </mxCell>
        <mxCell id="kFv9sooGO09x-evt4qj2-16" value="creates" style="text;html=1;align=center;verticalAlign=middle;resizable=0;points=[];autosize=1;strokeColor=none;fillColor=none;fontSize=28;" vertex="1" parent="1">
          <mxGeometry x="-987" y="-261" width="102" height="38" as="geometry" />
        </mxCell>
        <mxCell id="kFv9sooGO09x-evt4qj2-22" value="*" style="text;html=1;align=center;verticalAlign=middle;resizable=0;points=[];autosize=1;strokeColor=none;fillColor=none;fontSize=28;" vertex="1" parent="1">
          <mxGeometry x="-764" y="-276" width="21" height="38" as="geometry" />
        </mxCell>
        <mxCell id="kFv9sooGO09x-evt4qj2-23" value="1...*" style="text;html=1;align=center;verticalAlign=middle;resizable=0;points=[];autosize=1;strokeColor=none;fillColor=none;fontSize=28;" vertex="1" parent="1">
          <mxGeometry x="-537" y="-333" width="60" height="38" as="geometry" />
        </mxCell>
        <mxCell id="kFv9sooGO09x-evt4qj2-24" value="" style="endArrow=block;endSize=16;endFill=0;html=1;rounded=0;fontSize=28;exitX=0.5;exitY=0;exitDx=0;exitDy=0;edgeStyle=orthogonalEdgeStyle;" edge="1" parent="1" source="ai49O4Mp9xUd7SfKjjoI-171" target="ai49O4Mp9xUd7SfKjjoI-163">
          <mxGeometry width="160" relative="1" as="geometry">
            <mxPoint x="-170" y="-315" as="sourcePoint" />
            <mxPoint x="-10" y="-315" as="targetPoint" />
            <Array as="points">
              <mxPoint x="-457" y="30" />
              <mxPoint x="-457" y="53" />
              <mxPoint x="-422" y="53" />
            </Array>
          </mxGeometry>
        </mxCell>
        <mxCell id="kFv9sooGO09x-evt4qj2-25" value="" style="endArrow=block;endSize=16;endFill=0;html=1;rounded=0;fontSize=28;exitX=0.5;exitY=0;exitDx=0;exitDy=0;edgeStyle=orthogonalEdgeStyle;" edge="1" parent="1" source="ai49O4Mp9xUd7SfKjjoI-175" target="ai49O4Mp9xUd7SfKjjoI-163">
          <mxGeometry width="160" relative="1" as="geometry">
            <mxPoint x="-757" y="10" as="sourcePoint" />
            <mxPoint x="-516.7353603603606" y="-345" as="targetPoint" />
            <Array as="points">
              <mxPoint x="-318" y="53" />
              <mxPoint x="-421" y="53" />
            </Array>
          </mxGeometry>
        </mxCell>
        <mxCell id="kFv9sooGO09x-evt4qj2-26" value="" style="endArrow=block;endSize=16;endFill=0;html=1;rounded=0;fontSize=28;exitX=0.5;exitY=0;exitDx=0;exitDy=0;edgeStyle=orthogonalEdgeStyle;" edge="1" parent="1" source="ai49O4Mp9xUd7SfKjjoI-121" target="ai49O4Mp9xUd7SfKjjoI-163">
          <mxGeometry width="160" relative="1" as="geometry">
            <mxPoint x="-747" y="20" as="sourcePoint" />
            <mxPoint x="-506.7353603603606" y="-335" as="targetPoint" />
            <Array as="points">
              <mxPoint x="42" y="54" />
              <mxPoint x="-422" y="54" />
            </Array>
          </mxGeometry>
        </mxCell>
        <mxCell id="kFv9sooGO09x-evt4qj2-27" value="" style="endArrow=block;endSize=16;endFill=0;html=1;rounded=0;fontSize=28;edgeStyle=orthogonalEdgeStyle;" edge="1" parent="1" source="ai49O4Mp9xUd7SfKjjoI-179" target="ai49O4Mp9xUd7SfKjjoI-163">
          <mxGeometry width="160" relative="1" as="geometry">
            <mxPoint x="-737" y="30" as="sourcePoint" />
            <mxPoint x="-496.7353603603606" y="-325" as="targetPoint" />
            <Array as="points">
              <mxPoint x="503" y="54" />
              <mxPoint x="-421" y="54" />
            </Array>
          </mxGeometry>
        </mxCell>
        <mxCell id="kFv9sooGO09x-evt4qj2-28" value="Extends" style="endArrow=block;endSize=16;endFill=0;html=1;rounded=0;fontSize=28;edgeStyle=orthogonalEdgeStyle;" edge="1" parent="1" source="ai49O4Mp9xUd7SfKjjoI-167" target="ai49O4Mp9xUd7SfKjjoI-163">
          <mxGeometry x="0.9432" width="160" relative="1" as="geometry">
            <mxPoint x="-727" y="40" as="sourcePoint" />
            <mxPoint x="-486.7353603603606" y="-315" as="targetPoint" />
            <Array as="points">
              <mxPoint x="-422" y="53" />
            </Array>
            <mxPoint as="offset" />
          </mxGeometry>
        </mxCell>
        <mxCell id="kFv9sooGO09x-evt4qj2-30" value="employs" style="text;html=1;align=center;verticalAlign=middle;resizable=0;points=[];autosize=1;strokeColor=none;fillColor=none;fontSize=28;" vertex="1" parent="1">
          <mxGeometry x="-659" y="-552" width="114" height="38" as="geometry" />
        </mxCell>
        <mxCell id="kFv9sooGO09x-evt4qj2-31" value="Extends" style="endArrow=block;endSize=16;endFill=0;html=1;rounded=0;fontSize=28;edgeStyle=orthogonalEdgeStyle;" edge="1" parent="1" source="ai49O4Mp9xUd7SfKjjoI-125" target="ai49O4Mp9xUd7SfKjjoI-117">
          <mxGeometry x="0.6832" width="160" relative="1" as="geometry">
            <mxPoint x="-22" y="-585" as="sourcePoint" />
            <mxPoint x="-456" y="-345" as="targetPoint" />
            <Array as="points">
              <mxPoint x="-22" y="-591" />
              <mxPoint x="-257" y="-591" />
            </Array>
            <mxPoint as="offset" />
          </mxGeometry>
        </mxCell>
        <mxCell id="kFv9sooGO09x-evt4qj2-32" value="" style="endArrow=block;endSize=16;endFill=0;html=1;rounded=0;fontSize=28;edgeStyle=orthogonalEdgeStyle;" edge="1" parent="1" source="ai49O4Mp9xUd7SfKjjoI-163" target="ai49O4Mp9xUd7SfKjjoI-117">
          <mxGeometry x="0.738" y="6" width="160" relative="1" as="geometry">
            <mxPoint x="-12" y="-523" as="sourcePoint" />
            <mxPoint x="-228" y="-620" as="targetPoint" />
            <Array as="points">
              <mxPoint x="-466" y="-592" />
              <mxPoint x="-257" y="-592" />
            </Array>
            <mxPoint as="offset" />
          </mxGeometry>
        </mxCell>
        <mxCell id="kFv9sooGO09x-evt4qj2-40" value="1...*" style="text;html=1;align=center;verticalAlign=middle;resizable=0;points=[];autosize=1;strokeColor=none;fillColor=none;fontSize=28;" vertex="1" parent="1">
          <mxGeometry x="522" y="-869" width="60" height="38" as="geometry" />
        </mxCell>
        <mxCell id="kFv9sooGO09x-evt4qj2-41" value="1...*" style="text;html=1;align=center;verticalAlign=middle;resizable=0;points=[];autosize=1;strokeColor=none;fillColor=none;fontSize=28;" vertex="1" parent="1">
          <mxGeometry x="957" y="-865" width="60" height="38" as="geometry" />
        </mxCell>
        <mxCell id="kFv9sooGO09x-evt4qj2-44" value="1...*" style="text;html=1;align=center;verticalAlign=middle;resizable=0;points=[];autosize=1;strokeColor=none;fillColor=none;fontSize=28;" vertex="1" parent="1">
          <mxGeometry x="413" y="-539" width="60" height="38" as="geometry" />
        </mxCell>
        <mxCell id="kFv9sooGO09x-evt4qj2-47" value="1...*" style="text;html=1;align=center;verticalAlign=middle;resizable=0;points=[];autosize=1;strokeColor=none;fillColor=none;fontSize=28;" vertex="1" parent="1">
          <mxGeometry x="278" y="-116" width="60" height="38" as="geometry" />
        </mxCell>
        <mxCell id="kFv9sooGO09x-evt4qj2-51" value="1" style="text;html=1;align=center;verticalAlign=middle;resizable=0;points=[];autosize=1;strokeColor=none;fillColor=none;fontSize=28;" vertex="1" parent="1">
          <mxGeometry x="275" y="-29" width="26" height="38" as="geometry" />
        </mxCell>
        <mxCell id="kFv9sooGO09x-evt4qj2-52" value="*" style="text;html=1;align=center;verticalAlign=middle;resizable=0;points=[];autosize=1;strokeColor=none;fillColor=none;fontSize=28;" vertex="1" parent="1">
          <mxGeometry x="642" y="-452" width="21" height="38" as="geometry" />
        </mxCell>
        <mxCell id="kFv9sooGO09x-evt4qj2-53" value="orders" style="text;html=1;align=center;verticalAlign=middle;resizable=0;points=[];autosize=1;strokeColor=none;fillColor=none;fontSize=28;" vertex="1" parent="1">
          <mxGeometry x="638" y="-429" width="89" height="38" as="geometry" />
        </mxCell>
        <mxCell id="kFv9sooGO09x-evt4qj2-56" value="1...*" style="text;html=1;align=center;verticalAlign=middle;resizable=0;points=[];autosize=1;strokeColor=none;fillColor=none;fontSize=28;" vertex="1" parent="1">
          <mxGeometry x="1215" y="-361" width="60" height="38" as="geometry" />
        </mxCell>
        <mxCell id="kFv9sooGO09x-evt4qj2-57" value="*" style="text;html=1;align=center;verticalAlign=middle;resizable=0;points=[];autosize=1;strokeColor=none;fillColor=none;fontSize=28;" vertex="1" parent="1">
          <mxGeometry x="943" y="-452" width="21" height="38" as="geometry" />
        </mxCell>
        <mxCell id="kFv9sooGO09x-evt4qj2-65" value="1" style="text;html=1;align=center;verticalAlign=middle;resizable=0;points=[];autosize=1;strokeColor=none;fillColor=none;fontSize=28;" vertex="1" parent="1">
          <mxGeometry x="517" y="-774" width="26" height="38" as="geometry" />
        </mxCell>
        <mxCell id="kFv9sooGO09x-evt4qj2-66" value="*" style="text;html=1;align=center;verticalAlign=middle;resizable=0;points=[];autosize=1;strokeColor=none;fillColor=none;fontSize=28;" vertex="1" parent="1">
          <mxGeometry x="568" y="-590" width="21" height="38" as="geometry" />
        </mxCell>
        <mxCell id="kFv9sooGO09x-evt4qj2-67" value="1" style="text;html=1;align=center;verticalAlign=middle;resizable=0;points=[];autosize=1;strokeColor=none;fillColor=none;fontSize=28;" vertex="1" parent="1">
          <mxGeometry x="-981" y="-8" width="26" height="38" as="geometry" />
        </mxCell>
        <mxCell id="kFv9sooGO09x-evt4qj2-69" value="does" style="text;html=1;align=center;verticalAlign=middle;resizable=0;points=[];autosize=1;strokeColor=none;fillColor=none;fontSize=28;" vertex="1" parent="1">
          <mxGeometry x="-774" y="-251" width="71" height="38" as="geometry" />
        </mxCell>
        <mxCell id="kFv9sooGO09x-evt4qj2-70" value="books" style="text;html=1;align=center;verticalAlign=middle;resizable=0;points=[];autosize=1;strokeColor=none;fillColor=none;fontSize=28;" vertex="1" parent="1">
          <mxGeometry x="413" y="-499" width="85" height="38" as="geometry" />
        </mxCell>
      </root>
    </mxGraphModel>
  </diagram>
</mxfile>
